Coordinates
version=1
nRows=19
nColumns=36
inDegrees=yes

Units are S.I. units (second, meters, Newtons, ...)
If the header above contains a line with 'inDegrees', this indicates whether rotational values are in degrees (yes) or radians (no).

endheader
time	pelvis_tilt	pelvis_list	pelvis_rotation	pelvis_tx	pelvis_ty	pelvis_tz	hip_flexion_r	hip_adduction_r	hip_rotation_r	knee_angle_r	knee_angle_r_beta	ankle_angle_r	subtalar_angle_r	mtp_angle_r	hip_flexion_l	hip_adduction_l	hip_rotation_l	knee_angle_l	knee_angle_l_beta	ankle_angle_l	subtalar_angle_l	mtp_angle_l	lumbar_extension	lumbar_bending	lumbar_rotation	arm_flex_r	arm_add_r	arm_rot_r	elbow_flex_r	pro_sup_r	arm_flex_l	arm_add_l	arm_rot_l	elbow_flex_l	pro_sup_l
      1.70833330	      4.79380947	      0.39580108	      2.31389133	     -1.06505199	      1.31133412	     -0.07751694	     -7.59755730	      0.80235631	    -10.66094160	      1.21814850	      0.02126070	      0.06907282	     -9.03481531	     -7.49999987	     -8.74250205	      0.33549089	     -6.83291293	      1.50549467	      0.02627584	      3.00035568	      2.83582085	     -7.49999987	    -16.28101634	      1.13472582	      0.59257834	      5.70482710	     -6.39771768	      9.09184065	     27.29506125	     73.56326056	      6.84844323	     -8.31198764	     24.78398432	     25.59447202	     80.62026126
      1.71250000	      4.79686258	      0.39141098	      2.27719427	     -1.06438877	      1.31083375	     -0.07711968	     -7.62187588	      0.81934547	    -10.44549218	      1.19134030	      0.02079281	     -0.17977243	     -9.49233208	     -7.49999987	     -8.76845314	      0.32785546	     -6.90882687	      1.48213092	      0.02586806	      2.94854789	      2.87354323	     -7.49999987	    -16.30105628	      1.10173828	      0.68144429	      5.68775438	     -6.48865333	      9.79417759	     27.24949706	     71.49194709	      6.88881032	     -8.33892472	     25.52504854	     25.62207789	     77.50729347
      1.71666670	      4.71648710	      0.38687597	      2.30461040	     -1.06458332	      1.31130742	     -0.07774925	     -7.55550487	      0.83306720	    -10.44691598	      1.17118625	      0.02044106	     -0.27206271	     -9.54469319	     -7.49999987	     -8.66680196	      0.31417106	     -6.89778623	      1.50714645	      0.02630467	      2.99331257	      3.02318878	     -7.49999987	    -16.18834568	      1.10988560	      0.68110548	      5.63731776	     -6.41781151	      8.86420092	     27.18434189	     76.42827631	      6.91874416	     -8.30690335	     24.70850859	     25.36842346	     84.64989070
      1.72083330	      4.70316389	      0.38464625	      2.30493148	     -1.06481643	      1.31059371	     -0.07779491	     -7.54421910	      0.83434454	    -10.35593690	      1.14064662	      0.01990804	     -0.28661352	     -9.63076262	     -7.49999987	     -8.64536349	      0.32839780	     -6.67177893	      1.48785388	      0.02596795	      2.93081281	      2.76955700	     -7.49999987	    -16.16624817	      1.10940122	      0.73557537	      5.65032253	     -6.47995488	      9.21951893	     27.14494920	     75.51394254	      6.99245739	     -8.36868787	     25.40585841	     25.36113648	     83.61947306
      1.72500000	      4.77901820	      0.39242352	      2.33336557	     -1.06438027	      1.31028840	     -0.07726913	     -7.63468629	      0.84162563	    -10.50180134	      1.11128292	      0.01939555	     -0.18090931	     -9.37478373	     -7.49999987	     -8.72188489	      0.33084822	     -6.62916173	      1.48405596	      0.02590166	      2.97716840	      2.89051253	     -7.49999987	    -16.27799931	      1.11544100	      0.58018037	      5.72834634	     -6.36857297	      9.07532743	     27.19454001	     73.04938397	      6.84979131	     -8.34356213	     25.03724269	     25.49442381	     80.17927198
      1.72916670	      4.76204546	      0.37812084	      2.29582391	     -1.06390193	      1.30443820	     -0.07715168	     -7.61601981	      0.85356144	    -10.33247612	      1.11361806	      0.01943630	     -0.06203343	     -9.60350559	     -7.49999987	     -8.71564630	      0.32147934	     -6.71494681	      1.47897267	      0.02581294	      3.28760218	      3.27520702	     -7.49999987	    -16.16884809	      1.10606072	      0.66251291	      5.73984198	     -6.51148598	      9.93309921	     27.00209136	     74.48648661	      6.92489018	     -8.42659266	     25.69978041	     25.34447400	     82.11204605
      1.73333330	      4.72661127	      0.36806499	      2.27545284	     -1.06380513	      1.31033674	     -0.07726231	     -7.57158004	      0.85352300	    -10.35556185	      1.14806984	      0.02003760	     -0.02165160	     -9.61697988	     -7.49999987	     -8.67062171	      0.30166953	     -6.71435088	      1.48899214	      0.02598782	      3.32246894	      3.27090387	     -7.49999987	    -16.17609759	      1.09151074	      0.68347409	      5.74559152	     -6.50481941	      9.92089928	     27.01452666	     74.48804683	      6.91222928	     -8.42764557	     25.68542703	     25.35605739	     82.11358942
      1.73750000	      4.78474637	      0.36197244	      2.22826142	     -1.06395136	      1.30971614	     -0.07718372	     -7.68790528	      0.86342866	    -10.24436458	      1.08929080	      0.01901171	     -0.00302539	     -9.65224590	     -7.49999987	     -8.82043250	      0.29998432	     -6.73984683	      1.38799377	      0.02422506	      3.31652112	      3.34638256	     -7.49999987	    -16.11831974	      1.07458608	      0.78202750	      5.67474466	     -6.48918989	     10.10580656	     26.98229552	     72.08206181	      6.85789969	     -8.38665928	     25.84582141	     25.40444161	     78.73724940
      1.74166670	      4.77866760	      0.39563098	      2.30885966	     -1.06527237	      1.31204380	     -0.07874125	     -7.71045272	      0.82558943	    -10.31082416	      1.04141712	      0.01817616	     -0.08864478	     -9.56490938	     -7.49999987	     -8.80038342	      0.33608671	     -6.68890176	      1.40577135	      0.02453534	      3.26610737	      3.12665996	     -7.49999987	    -16.15717534	      1.06187881	      0.72939790	      5.58859004	     -6.36856373	      8.78336380	     27.09097824	     76.45884146	      6.87847514	     -8.30902315	     24.68285501	     25.35804333	     84.74758939
      1.74583330	      4.78319058	      0.40324190	      2.30535743	     -1.06523647	      1.31283444	     -0.07834062	     -7.72253552	      0.80890148	    -10.20114790	      1.00820570	      0.01759651	     -0.14326460	     -9.59557680	     -7.49999987	     -8.81087224	      0.34750385	     -6.76503945	      1.38474826	      0.02416842	      3.27144466	      3.33362533	     -7.49999987	    -16.19022446	      1.05165029	      0.68578246	      5.67065904	     -6.46999507	     10.09547272	     27.08979070	     72.41641442	      6.95430730	     -8.39790538	     26.00280787	     25.36689244	     79.06700407
      1.75000000	      4.92560370	      0.37905557	      2.37759747	     -1.06530289	      1.30382512	     -0.07730382	     -7.87391092	      0.86153826	    -10.26332336	      1.01645044	      0.01774041	      0.02809625	     -9.57688817	     -7.49999987	     -8.94772514	      0.32524667	     -6.52923320	      1.39481446	      0.02434410	      3.29485097	      2.89452657	     -7.49999987	    -16.42230531	      1.09217619	      0.62216324	      5.69116005	     -6.42540116	      9.73701070	     27.26066116	     70.88195272	      6.93607087	     -8.39351254	     25.75730228	     25.63335176	     76.78679068
      1.75416670	      4.89191947	      0.39153112	      2.43285856	     -1.06585278	      1.30920205	     -0.07853126	     -7.80961960	      0.85085396	    -10.27845666	      1.11108463	      0.01939209	      0.03024733	     -9.58367580	     -7.49999987	     -8.86563546	      0.33136391	     -6.57486152	      1.44593493	      0.02523633	      3.33559342	      2.86554779	     -7.49999987	    -16.45220299	      1.08393474	      0.61088322	      5.69136557	     -6.43212633	      9.74367784	     27.26260920	     70.89466945	      6.96573373	     -8.38298870	     25.76804989	     25.64766724	     76.80478671
      1.75833330	      4.86312346	      0.42228572	      2.50706180	     -1.06583933	      1.30998542	     -0.07875782	     -7.79081583	      0.82205400	    -10.31786919	      1.12279275	      0.01959643	     -0.10594712	     -9.71011366	     -7.49999987	     -8.80640528	      0.35433815	     -6.54583373	      1.48768427	      0.02596499	      3.35861298	      2.68674388	     -7.49999987	    -16.36866279	      1.05918292	      0.61097848	      5.60733361	     -6.35060563	      8.67662385	     27.13938289	     76.43081084	      7.09807732	     -8.31427847	     24.98413683	     25.32847727	     84.54079173
      1.76250000	      4.89542064	      0.45874827	      2.52507076	     -1.06550824	      1.31166010	     -0.07875427	     -7.82054932	      0.77930632	    -10.20161162	      1.13345119	      0.01978246	     -0.38805988	     -9.96333431	     -7.49999987	     -8.83676631	      0.39887244	     -6.64396706	      1.47780831	      0.02579262	      3.15171787	      2.38500313	     -7.49999987	    -16.44299267	      1.03780477	      0.61007614	      5.62983577	     -6.53848034	      9.98775886	     27.22531670	     71.77315383	      7.17437665	     -8.37780014	     26.24702574	     25.44160567	     78.15910844
      1.76666670	      4.92801242	      0.43477776	      2.57711475	     -1.06472291	      1.30717054	     -0.07778805	     -7.86896638	      0.81842488	    -10.29552244	      1.15583277	      0.02017309	     -0.21995072	     -9.87326577	     -7.49999987	     -8.85419190	      0.35039587	     -6.58439399	      1.51535299	      0.02644790	      3.25764316	      2.57211848	     -7.49999987	    -16.47087784	      1.07757577	      0.54263148	      5.56727772	     -6.53197778	      9.95130715	     27.35219578	     71.64084629	      7.11288219	     -8.43957094	     26.31040911	     25.59945139	     77.97175122
      1.77083330	      4.88919368	      0.44459952	      2.62005342	     -1.06550487	      1.31233029	     -0.07880450	     -7.79574975	      0.80353438	    -10.31932414	      1.22037218	      0.02129951	     -0.21140817	     -9.86964946	     -7.49999987	     -8.76658613	      0.35580884	     -6.66742805	      1.56604342	      0.02733261	      3.25511285	      2.53650090	     -7.49999987	    -16.50350742	      1.08610601	      0.54578943	      5.58582500	     -6.52199306	      9.95071494	     27.35745909	     71.65263116	      7.13872728	     -8.41874110	     26.31201013	     25.61170740	     77.98796729
      1.77500000	      4.88526479	      0.40862032	      2.56762393	     -1.06485865	      1.30721944	     -0.07809500	     -7.80810949	      0.82884173	    -10.34006810	      1.19532445	      0.02086235	     -0.07582395	     -9.70629331	     -7.49999987	     -8.79492583	      0.32774852	     -6.72757166	      1.54197967	      0.02691262	      3.23325711	      2.70352242	     -7.49999987	    -16.41415170	      1.13274384	      0.61531728	      5.47474350	     -6.40002233	      8.55124136	     27.31690260	     76.49037319	      7.04453689	     -8.25305565	     24.68621283	     25.51327835	     84.65014415
      1.77916670	      4.87979379	      0.41231854	      2.56864613	     -1.06572991	      1.31164397	     -0.07775168	     -7.79419285	      0.82971028	    -10.33733247	      1.19258510	      0.02081454	     -0.07629250	     -9.70483105	     -7.49999987	     -8.78376366	      0.31975613	     -6.72531240	      1.53797177	      0.02684267	      3.23188057	      2.70491358	     -7.49999987	    -16.40934273	      1.13201527	      0.61520602	      5.47611264	     -6.40165850	      8.55114886	     27.31766132	     76.49035416	      7.04487139	     -8.25258694	     24.68619035	     25.51397311	     84.65006461
      1.78333330	      4.79886238	      0.39196454	      2.50740033	     -1.06561553	      1.31158960	     -0.07751212	     -7.68439266	      0.84958560	    -10.16181018	      1.18934964	      0.02075807	     -0.14506271	     -9.70862761	     -7.49999987	     -8.73059182	      0.29585145	     -6.78178669	      1.50366389	      0.02624389	      3.06516930	      2.83589530	     -7.49999987	    -16.24975602	      1.13994247	      0.61826240	      5.58823758	     -6.47933667	      9.36495104	     27.16171544	     74.63309155	      7.05778819	     -8.28228767	     25.40227315	     25.36521258	     81.98391788
